<?xml version="1.0"?><svg width="2481" height="2073" xmlns="http://www.w3.org/2000/svg">
 <title>white google map pin</title>
 <g>
  <title>Layer 1</title>
  <path d="m519.508179,710.630005c-12.874908,-68.150146 -35.573761,-124.866089 -63.067932,-177.426758c-20.39386,-38.988647 -44.018616,-74.9758 -65.877899,-112.786743c-7.296661,-12.62149 -13.59433,-25.954895 -20.605896,-39.053528c-14.019989,-26.192535 -25.387085,-56.560394 -24.665375,-95.951752c0.706055,-38.488571 11.028625,-69.362228 25.914063,-94.606125c24.483124,-41.518646 65.491516,-75.55899 120.515961,-84.504822c44.988556,-7.314247 87.169403,5.043053 117.080902,23.903671c24.442261,15.412979 43.372253,36.000519 57.758972,60.264267c15.017395,25.324997 25.359619,55.244324 26.22583,94.269211c0.445313,19.993927 -2.590088,38.509521 -6.867798,53.867157c-4.327271,15.545654 -11.288574,28.540283 -17.481812,42.421509c-12.09198,27.094391 -27.249146,51.921204 -42.462891,76.760437c-45.311279,73.990875 -87.84082,149.446747 -106.466125,252.843475z" stroke-width="37" stroke-miterlimit="10" stroke="#000000" fill-rule="evenodd" fill="#ffff00" clip-rule="evenodd" id="svg_2"/>
 </g>
</svg>